<?xml version="1.0" encoding="UTF-8"?><svg id="Layer_1" xmlns="http://www.w3.org/2000/svg" xmlns:xlink="http://www.w3.org/1999/xlink" viewBox="0 0 15.46 15.46"><defs><style>.cls-1{fill:url(#linear-gradient);}.cls-1,.cls-2,.cls-3{stroke-width:0px;}.cls-2{fill:#f9f6ef;}.cls-3{fill:url(#linear-gradient-2);}</style><linearGradient id="linear-gradient" x1="1.03" y1="11.6" x2="14.42" y2="3.86" gradientUnits="userSpaceOnUse"><stop offset="0" stop-color="#1c75bc"/><stop offset=".15" stop-color="#2370b9"/><stop offset=".37" stop-color="#3862b1"/><stop offset=".64" stop-color="#5a4ba4"/><stop offset=".95" stop-color="#892c92"/><stop offset="1" stop-color="#92278f"/></linearGradient><linearGradient id="linear-gradient-2" x1="2.82" y1="10.56" x2="12.64" y2="4.9" xlink:href="#linear-gradient"/></defs><circle class="cls-2" cx="7.73" cy="7.73" r="7.73"/><path class="cls-1" d="m7.73,0C3.46,0,0,3.46,0,7.73s3.46,7.73,7.73,7.73,7.73-3.46,7.73-7.73S12,0,7.73,0Zm0,13.88c-3.4,0-6.15-2.75-6.15-6.15S4.33,1.58,7.73,1.58s6.15,2.75,6.15,6.15-2.75,6.15-6.15,6.15Z"/><path class="cls-3" d="m7.73,2.07c-3.13,0-5.66,2.54-5.66,5.66s2.54,5.66,5.66,5.66,5.66-2.54,5.66-5.66-2.54-5.66-5.66-5.66Zm-2.31,8.12c-.11,0-.21-.03-.3-.09l-2.53-1.58c-.17-.11-.27-.29-.27-.49v-.33c0-.2.1-.38.27-.49l2.55-1.58c.27-.17.62-.08.79.18.08.13.11.29.07.44-.04.15-.13.28-.26.36l-2.04,1.25,2.03,1.26c.14.08.23.22.26.38.03.16,0,.32-.1.45-.11.15-.29.24-.47.24Zm1.31.65c-.06.12-.18.2-.32.22-.02,0-.05,0-.07,0-.08,0-.17-.02-.25-.06-.1-.05-.19-.13-.24-.22-.07-.13-.08-.27-.02-.39l1.15-2.31.57-1.14,1.15-2.31c.06-.12.18-.2.32-.22.11-.02.22,0,.32.06.1.05.19.13.24.22.07.13.07.27.01.39l-1.15,2.31-.57,1.15-1.15,2.31Zm6.14-2.32l-2.53,1.58c-.09.06-.2.09-.3.09-.18,0-.35-.08-.46-.23-.1-.14-.14-.3-.11-.46.03-.16.12-.29.26-.38l2.03-1.25-2.05-1.26c-.13-.08-.22-.21-.26-.36-.03-.15,0-.31.08-.44.17-.26.52-.34.78-.18l2.56,1.58c.17.1.27.29.27.49v.34c0,.2-.1.38-.27.49Z"/></svg>